<svg width="230" height="50" viewBox="0 0 230 50" fill="none" xmlns="http://www.w3.org/2000/svg">
    <g clip-path="url(#afvogvjh3a)">
        <path d="M24.471 4.006H18.48c-3.396 0-3.162 2.946-3.162 2.946v25.532c0 .16-.051.557-.262.77-.227.22-.692.267-1.046.267H9.305c-3.416 0-6.2-2.636-6.2-5.876s2.784-5.915 6.2-5.915h3.356c1.52 0 1.575-1.492 1.575-1.492 0-1.37-1.575-1.492-1.575-1.492H9.305C4.167 18.746 0 22.776 0 27.649c0 4.874 4.167 8.821 9.305 8.821h5.992c3.396 0 3.162-2.95 3.162-2.95V7.992c0-.16.052-.557.266-.77.227-.22.692-.267 1.042-.267h4.704c3.416 0 6.196 2.636 6.196 5.876s-2.78 5.919-6.196 5.919h-3.356c-1.519 0-1.574 1.492-1.574 1.492 0 1.37 1.574 1.492 1.574 1.492h3.356c5.138 0 9.305-4.03 9.305-8.903 0-4.874-4.167-8.821-9.305-8.821v-.004z" fill="url(#emi9weec8b)"/>
        <path fill-rule="evenodd" clip-rule="evenodd" d="M202.793 13.373a9.02 9.02 0 0 0 1.014 1.862c.314.431.688.73 1.113 1.04.303.224.537.554.919.64.815.189.887-.44.994-1.04.155-.857.41-1.654.803-2.435.219-.436 1.718-4.356 2.14-4.698.143-.117.377-.24.568-.11.08.055.147.287.203.378.179.282.366.518.525.816.266.487.557 1.041 1.022 1.371.159.114.338.2.517.283.549.263 1.097.522 1.642.785.593.283 1.173.613 1.786.845.389.145.572-.134.779-.405.338-.436.072-.51-.334-.785-.298-.204-.537-.468-.811-.7l-1.511-1.284c-.47-.4-.947-.8-1.472-1.13-.632-.393-1.232-.594-1.71-1.175-.58-.71-.151-1.037.43-1.602.27-.264 2.37-1.673 2.593-1.929.473-.546.922-1.531.612-2.242-.151-.342-1.078-1.489-1.368-1.67-.453-.286-.907-.168-1.412-.137-.521.031-1.045.04-1.531.26-.242.11-3.483 2.069-4.405 3.251-.529.68-1.018 1.39-1.456 2.137-.863 1.472-1.535 3.083-1.793 4.775-.112.73-.243 1.776-.016 2.494.04.13.091.267.147.409m26.332 27.837c-.095.02-.175.044-.23.063-.66.244-1.114.829-1.635 1.265-.35.294-.7.605-1.113.809-.191.094-.402.173-.616.169-.211 0-.323-.122-.502-.157-.167-.032-.393-.122-.56-.114-.143.008-.314.121-.434.192-.294.177-.552.405-.827.609-.612.448-1.328.73-2.04 1.005-1.57.61-3.376 1.63-5.125 1.351-.851-.137-.553-.785-.159-1.307.827-1.112 1.749-2.153 2.489-3.327.294-.467.66-.801.592-1.374a2.267 2.267 0 0 0-.922-1.556c-.589-.416-1.308-.597-2.012-.773-1.142-.283-2.287-.57-3.428-.853-.286-.07-.752-.51-.668-.852.056-.228.266-.385.457-.522a16.512 16.512 0 0 0 3.074-2.907c.37-.455.99-1.076 1.078-1.653.083-.526-.195-1.367-.577-1.744-.099-.098-.215-.169-.334-.243-.489-.303-1.217-.385-1.097-1.14.33-.164.572-.467.731-.797.271-.561.267-1.146.374-1.747.171-.923.465-1.823.676-2.726.215-.919.589-1.673.946-2.533.291-.7.557-1.528 1.245-1.96.29-.184.64-.22.946-.373.434-.216 1.106-.432 1.11-1.029 0-.456-.461-.471-.807-.546-.446-.094-.772-.298-1.181-.483-.482-.212-1.162-.318-1.682-.247-.804.11-1.543.495-2.295.773-2.505.931-5.149.88-7.774.88-1.65.004-3.296.012-4.947.02-.688 0-1.356.027-2.028-.09-.688-.119-2.302-.825-2.366.247-.016.294.088.593-.135.844-.394.444-1.316.727-1.865.935-1.26.48-2.592.742-3.913 1.001-1.228.24-2.465.534-3.702.68-1.141.133-2.266.094-3.412.094-1.515 0-3.169.083-4.596-.05-.183-.315-.104-1.006-.104-1.474 0-1.315-.226-3.075.155-3.959 2.903-.216 6.215-.435 8.828-1.88.493-.272 1.05-.602 1.44-1.01.23-.24.238-.228.282-.558.048-.377.119-.766-.207-.993-.25-.177-.7-.244-1.002-.236-.354.008-.286.074-.489.212-.306.208-1.865 1.162-2.39 1.39-.266.118-.557.185-.843.248l-.986.223c-.923.209-1.825.244-2.764.244-1.519 0-3.129.338-4.565-.204-.664-.248-1.4-.389-1.586-1.178-.136-.574.139-1.194.417-1.681.473-.829.879-1.69 1.416-2.479.457-.671.115-1.386-.267-2.042-.346-.589-.811-1.096-1.28-1.594-.644-.684-1.694-1.398-2.688-.88-.672.353-.744.836-1.149 1.323-.382.46-.645.94-.887 1.497-.088.2-.163.408-.235.612l-.759 2.13c-.951 2.658-1.229 6.22 1.94 7.43.66.251 1.34.287 2.04.283.601-.004 1.197.058 1.794-.052.636-.117 1.185-.502 1.861-.4.214.463.119 1.021.063 1.508-.111.927-.139 2.977-1.201 3.437-.179.078-.381.082-.568.137-.489.153-.752.26-1.261.267-.318.008-.644.051-.962.07-.632.032-1.269.06-1.901.06h-5.495c-.828-.075-2.056-.17-2.8.074a.582.582 0 0 0-.079.028c-.219.07-.028 1.139.043 1.296.175.4.509.703.943.801.648.15 1.308.028 1.956.09 2.02.2 3.917.428 5.961.464a395.1 395.1 0 0 0 6.478.063c1.26 0 2.537 0 3.797-.055.962-.044 5.185-.923 6.434-1.234a37.145 37.145 0 0 0 6.923-2.482c.581-.275 1.161-.57 1.79-.715.759-.176 1.224.04 1.924.22 1.937.503 3.969.535 5.961.53.946 0 1.893-.035 2.839-.043.537-.003 1.074-.011 1.615-.015.218 0 1.415-.15 1.535-.008.043.051.087.102.127.153l-.076 1.343c0 .652.02 1.312-.024 1.964-.039.597-.083 1.002.012 1.595.064.4.219 1.237-.437 1.264-.612.024-1.296-.562-1.833-.774-.243-.098-.497-.192-.756-.145-.215.04-.397.18-.553.334-.345.338-.588.695-.628 1.163-.107 1.315.426 2.238 1.555 2.98 1.058.695 3.245 1.112 2.036 2.883-.509.742-1.062 1.489-1.559 2.258-.167.26-.342.527-.425.825-.096.346-.215.57-.195.966.024.468.115 1.084.497 1.434.449.408 1.018.169 1.563.169 1.26 0 2.632.361 3.809.8.326.123.652.26.923.476.274.216.628.652.552 1.013-.063.303-.477.656-.652.9l-1.05 1.473c-.338.475-.68.95-1.089 1.362-.37.373-.807.703-1.034 1.17-.581 1.19-.382 2.82.799 3.583 1.058.679 2.136 0 3.146-.338 1.292-.432 2.632-.817 3.936-1.237.724-.232 1.452-.464 2.124-.813 1.26-.66 2.378-1.575 3.626-2.267 1.166-.64 1.933-1.645 2.879-2.54.263-.248.851-.703.891-1.092.056-.495-.465-.295-.871-.209m-35.243-10.293c-.199.059-.394.122-.573.165-.716.169-1.427.341-2.139.518-1.388.342-2.776.695-4.164 1.045-.608.153-1.216.31-1.825.463-1.646.416-3.428.754-4.994 1.434-.664.286-1.905.691-2.605.228-.755-.503.012-1.819.437-2.278.935-1.01 1.921-2 2.967-2.856.215-.172.441-.4.537-.667.151-.42.024-.385-.207-.684-.314-.408-.489-.891-.875-1.268-.676-.672-1.861-1.583-2.815-.888-.402.295-.632.75-.923 1.15-.302.421-.68.783-1.054 1.14a97.45 97.45 0 0 1-2.755 2.517c-.974.857-2.116 1.532-2.319 2.922-.155 1.073-.306 2.168-.214 3.252.04.491.107 1.084.453 1.47.624.69 1.249.23 1.968-.032.875-.318 1.79-.562 2.689-.817 1.375-.393 13.094-3.484 13.567-3.606.422-.11.835-.25 1.249-.388 1.117-.377 2.235-.75 3.352-1.127.374-.126 1.185-.232 1.444-.535.242-.282.238-1.029.115-1.347-.398-.078-.871.051-1.312.18M50.243 23.239c1.105 0 1.889-4.458 1.877-7.266 0-.581-.012-1.634-.883-1.347-1.491.742-2.39 3.884-2.39 6.77 0 .892.831 1.843 1.4 1.843h-.004z" fill="#231916"/>
        <path fill-rule="evenodd" clip-rule="evenodd" d="m51.921 13.55 3.75.172c.763.016 1.48 0 2.143-.047-1.845 1.626 3.078 11.951-7.555 11.908-1.44-.11-1.603.99-1.603 1.233 0 1.08.772 1.842 1.865 1.842h.93c1.5 0 9.083-3.417 10.73-4.14 1.069-.47 4.012-2.128 5.463-3.526 2.505-2.415 3.161-4.717.728-3.55-3.877 2.694-5.953 4.37-8.872 4.838.525-2.187.943-5.683.764-6.782-.243-1.269-.585-1.772-1.146-1.948 5.647-.758 6.745-3.614 3.13-3.68-3.185 0-4.744-.633-7.738-1.183-3.233-.597-6.224-2.96-7.257-2.96-.72 0-1.4 1.547-1.4 2.3 0 3.418 2.457 5.527 6.06 5.527l.008-.004zM70.102 29.118c-.708.059-1.337-.035-2.12.177-1.384 0-9.814 3.966-14.665 3.966h-4.195c-1.897 0-2.06-.864-4.534-1.143-1.42.036-.882 2.373-.576 3.437.632 1.913 1.284 2.773 3.245 2.773h2.795c4.76 0 8.621-2.612 11.858-4.07 2.605-1.17 7.166-1.605 9.098-2.54 3.571-.911.99-2.6-.906-2.6zM115.509 19.28l-.024-.099-.071-.259-.024-.09c-.036-.114-.072-.232-.112-.35-.008-.02-.012-.039-.02-.058l-.107-.31-.036-.095a8.651 8.651 0 0 0-.123-.326c-.008-.016-.012-.031-.016-.043l-.155-.381c-.008-.024-.02-.043-.028-.067a5.66 5.66 0 0 0-.143-.322l-.036-.082a13.746 13.746 0 0 0-.405-.817c-.056-.102-.112-.2-.167-.303l-.04-.07a11.251 11.251 0 0 0-.469-.758 8.733 8.733 0 0 0-.199-.291 7.425 7.425 0 0 0-.286-.389 6.927 6.927 0 0 0-.255-.318c-.012-.012-.02-.024-.032-.035a6.842 6.842 0 0 0-.222-.256l-.06-.066c-.076-.079-.151-.157-.227-.232a5.731 5.731 0 0 0-.6-.53l-.076-.06a7.878 7.878 0 0 0-.226-.16c-.024-.016-.044-.032-.068-.047a4.542 4.542 0 0 0-.294-.181l-.024-.012a4.46 4.46 0 0 0-.275-.137c-.027-.012-.059-.024-.087-.04-.076-.031-.151-.062-.227-.09-.027-.012-.059-.02-.087-.031a4.822 4.822 0 0 0-.31-.09c.059-2.68 2.33-6.288 2.33-6.909 0-.891-.831-1.842-1.4-1.842-2.688 0-4.529 6.818-5.416 9.387-.898 2.603-3.909 8.801-3.909 11.334 0 .644.637.923 1.4.923h.935c3.368 0 4.767-6.433 5.169-10.007L110.9 20.8c.291 1.382 1.79 2.27 2.955 2.332.083.016.175.02.266.02h.024c.088 0 .179-.012.266-.031h.024a.12.12 0 0 0 .036-.008c.02-.004.04-.008.06-.016.032-.008.067-.016.099-.027.016-.004.032-.012.052-.016.048-.016.095-.035.143-.055.012-.008.024-.012.036-.02.036-.015.071-.035.107-.055a.37.37 0 0 0 .052-.031l.091-.059.048-.035c.036-.028.072-.055.103-.083.008-.008.016-.012.024-.02.04-.035.08-.074.116-.113l.035-.043c.024-.032.052-.06.072-.09l.036-.052c.024-.035.044-.07.067-.106l.024-.043c.028-.051.052-.106.076-.165.004-.012.008-.028.016-.043.016-.047.032-.09.043-.142.004-.02.008-.043.016-.063a.76.76 0 0 0 .024-.137c0-.02.008-.043.008-.063.008-.07.012-.141.012-.212.08-.558-.044-1.178-.238-1.81-.024-.107-.052-.216-.08-.33l-.004-.004z" fill="#231916"/>
        <path fill-rule="evenodd" clip-rule="evenodd" d="M123.72 5.172c-1.674 0-2.656 2.007-2.799 3.684-.032 0-.064.008-.103.008h-.04c-.024 0-.048.004-.076.008-.02 0-.043 0-.063.004-.024 0-.044 0-.068.004-.024 0-.052 0-.075.004-.02 0-.044 0-.068.004-.231.02-.513.039-.827.063-.016 0-.036 0-.056.004l-.151.011c-.032 0-.06.004-.091.008-.044 0-.092.008-.14.012-.031 0-.059.004-.091.008-.048 0-.092.008-.139.012-.036 0-.072.007-.108.007l-.131.012c-.04 0-.075.008-.115.012-.044 0-.088.008-.131.012l-.116.012c-.047.003-.095.011-.147.015a3.193 3.193 0 0 1-.195.02c-.051.004-.099.012-.151.016-.044.004-.087.011-.135.015-.04.004-.08.008-.119.016-.048.008-.1.012-.147.02l-.108.011c-.051.008-.099.012-.151.02a.807.807 0 0 0-.103.016 2.163 2.163 0 0 1-.155.02c-.032.003-.068.007-.1.015l-.159.024c-.028.004-.059.008-.087.015-.056.008-.116.02-.171.028a23.308 23.308 0 0 0-.652.118l-.068.012c-.056.011-.107.023-.159.035-.028.004-.052.012-.08.016l-.155.035-.079.02c-.052.011-.1.023-.151.035-.024.008-.048.012-.076.02-.052.011-.099.027-.147.039a.304.304 0 0 1-.064.016 2.13 2.13 0 0 1-.155.043h-.012c-.362.11-.68.235-.934.373-.565.314-.875.49-.525 1.084.139.082.278.157.417.228l.1.047c.135.063.266.125.402.18.007 0 .011.004.015.008.116.047.231.09.346.126l.08.024.123.035c.108.031.211.059.318.086.044.012.092.02.136.032a8.713 8.713 0 0 0 .441.082 6.593 6.593 0 0 0 .887.07h.087c.119 0 .235 0 .354-.007.048 0 .092-.004.139-.008l.31-.024c.048-.003.1-.011.148-.015.107-.012.21-.028.318-.043.043-.008.087-.012.131-.02.139-.024.278-.051.421-.079.008 0 .016 0 .024-.004a9.706 9.706 0 0 0 .577-.137c.111-.027.219-.059.33-.09l.159-.047.302-.095c.056-.015.108-.035.163-.05.104-.036.211-.071.318-.11.048-.016.092-.032.139-.052.152-.055.307-.11.458-.169l-.334 6.469c0 .754.278 1.382.934 1.382 2.418-.326 2.975-9.296 3.257-12.308 0-.409-.334-1.555-.927-1.504v.007zM131.188 16.723c.581-4.05 1.599-8.26 1.599-12.265 0-1.728-1.503-2.789-2.537-1.5-1.575 1.504-2.835 3.683-2.804 9.578.016 2.895.152 6.543-.497 9.591-1.606 5.785 1.806 1.858 3.301-1.469.564-1.249.851-3.322.938-3.935zM141.261 15.132c.445 1.646 2.087 3.944 4.123 4.497 2.486.405 4.402-.13 4.911-2.022-.588-.032-1.153.267-1.769-.095-2.227-1.35-1.746-4.995-5.448-5.376.843-3.873 5.67-3.386 5.67-6.555 0-.95-1.709-2.596-4.155-1.583-2.159.338-11.285 13.993-11.285 18.188.883 2.45 4.863-6.158 7.953-7.058v.004zM154.554 25.642c-6.259.711-10.168 2.616-16.661 1.76-3.082-.472-3.257-.452-5.79-1.976-2.366-1.052-2.322 1.182-2.322 2.769 0 3.381 3.606 4.143 6.994 4.143 4.287.036 7.866-1.02 11.739-2.219 3.555-1.37 8.251-1.036 9.774-1.339 2.911-.396-1.698-3.42-3.734-3.142v.004zM105.452 27.386l-.811.727c-4.215 2.788-16.84 5.993-16.96 4.265-.37-2.011.243-4.175-1.05-5.605 3.114-2.136 8.351-3.334 12.908-4.936.629-.33 1.424-.523 1.333-1.01-.406-.452-1.13-.15-1.905-.059-7.345 1.579-11.496 2.89-18.197 5.534-2.206.475-2.743.114-2.004-.817 2.362-2.977 10.61-5.27 10.61-9.799 0-1.473-3.225-2.348-4.82-2.482 1.157-1.56 4.191-1.65 4.191-3.429 0-2.984-7.822-6.448-11.19-6.448h-1.4c.868 3.672 3.532 4.968 7.926 5.066-.525 1.948-1.893 2.557-3.865 3.012-1.925.648.123 4.749 1.57 4.94 1.225.22 2.426-.407 3.679-.2-.052 1.882-9.81 8.115-10.244 9.748-.62 1.787.748 3.197 2.08 3.197 1.38-.035 2.024-.07 2.994-.302 2.346-.522 2.939-1.198 4.716-1.34.784.57.426 2.668.47 3.971-.156 1.159-.346 1.662-1.65 1.862-2.172.53-4.518.687-6.757.888-3.761.333-6.23-.036-4.433 2.391.815.849 2.266.617 3.523.617 10.57 0 27.541-3.28 30.46-8.754.497-1.48.067-1.799-1.178-1.033l.004-.004z" fill="#231916"/>
    </g>
    <defs>
        <linearGradient id="emi9weec8b" x1="-4.81" y1="19.528" x2="29.522" y2="19.528" gradientUnits="userSpaceOnUse">
            <stop stop-color="#DF0716"/>
            <stop offset=".15" stop-color="#E11913"/>
            <stop offset=".46" stop-color="#E84A0C"/>
            <stop offset=".89" stop-color="#F39802"/>
            <stop offset=".98" stop-color="#F6AB00"/>
        </linearGradient>
        <clipPath id="afvogvjh3a">
            <path fill="#fff" d="M0 0h230v50H0z"/>
        </clipPath>
    </defs>
</svg>
