<svg width="166" height="36" viewBox="0 0 166 36" fill="none" xmlns="http://www.w3.org/2000/svg">
    <g clip-path="url(#w2ovu4i42a)">
        <path d="M17.662 2.884h-4.325c-2.451 0-2.282 2.121-2.282 2.121v18.383c0 .116-.037.402-.19.554-.163.159-.499.193-.754.193H6.716c-2.466 0-4.475-1.898-4.475-4.23 0-2.333 2.01-4.26 4.475-4.26h2.422c1.096 0 1.136-1.074 1.136-1.074 0-.986-1.136-1.074-1.136-1.074H6.716C3.008 13.497 0 16.398 0 19.907c0 3.51 3.008 6.351 6.716 6.351h4.325c2.45 0 2.281-2.123 2.281-2.123V5.754c0-.115.038-.401.193-.554.163-.158.5-.192.752-.192h3.395c2.465 0 4.471 1.897 4.471 4.23S20.127 13.5 17.662 13.5H15.24c-1.097 0-1.137 1.074-1.137 1.074 0 .987 1.137 1.075 1.137 1.075h2.422c3.708 0 6.716-2.902 6.716-6.41 0-3.51-3.008-6.352-6.716-6.352v-.003z" fill="url(#ssjjf33u4b)"/>
        <path fill-rule="evenodd" clip-rule="evenodd" d="M146.363 9.628c.181.456.457.962.732 1.34.227.312.497.527.804.75.218.161.387.399.663.461.588.136.64-.317.717-.75.112-.616.296-1.19.58-1.752.158-.314 1.24-3.136 1.544-3.382.103-.085.273-.173.41-.08.058.04.107.207.147.272.129.203.264.373.379.588.192.35.401.75.737.987.115.082.244.144.373.203l1.186.566c.427.204.846.441 1.288.608.281.105.413-.096.563-.291.244-.314.051-.368-.241-.566-.216-.147-.388-.336-.586-.503l-1.09-.925c-.339-.288-.684-.577-1.062-.814-.457-.283-.89-.427-1.234-.846-.419-.512-.11-.746.31-1.153.195-.19 1.71-1.205 1.871-1.389.341-.393.666-1.103.442-1.615-.109-.246-.778-1.071-.988-1.201-.327-.207-.654-.122-1.018-.1-.376.023-.755.029-1.105.187-.175.08-2.514 1.49-3.18 2.342-.382.489-.735 1-1.051 1.538-.622 1.06-1.108 2.22-1.294 3.439-.08.526-.175 1.278-.012 1.795.029.094.066.192.107.294m19.005 20.043a1.297 1.297 0 0 0-.167.046c-.476.175-.803.596-1.179.91-.253.212-.505.436-.804.583a.99.99 0 0 1-.445.121c-.152 0-.232-.087-.361-.113-.121-.023-.285-.088-.405-.082-.103.006-.227.088-.313.139-.212.127-.399.29-.597.438-.442.322-.958.526-1.472.724-1.134.438-2.437 1.173-3.7.973-.614-.1-.398-.566-.114-.942.597-.8 1.262-1.55 1.796-2.395.213-.337.477-.577.428-.99a1.633 1.633 0 0 0-.666-1.12c-.425-.3-.944-.43-1.452-.557-.824-.203-1.65-.41-2.474-.613-.207-.051-.543-.368-.482-.614.04-.164.192-.277.33-.376a11.91 11.91 0 0 0 2.218-2.093c.267-.328.715-.774.778-1.19.06-.379-.141-.984-.416-1.256-.072-.07-.155-.121-.241-.175-.353-.218-.878-.277-.792-.82.238-.119.413-.336.528-.574.195-.404.192-.826.27-1.258.123-.665.335-1.312.487-1.963.155-.662.425-1.204.684-1.824.209-.503.401-1.1.898-1.41.209-.134.462-.16.683-.27.313-.155.798-.31.801-.74 0-.328-.333-.34-.583-.393-.321-.068-.557-.215-.852-.348a2.48 2.48 0 0 0-1.214-.178c-.58.079-1.114.356-1.656.557-1.808.67-3.717.633-5.611.633-1.191.003-2.379.009-3.57.014-.497 0-.979.02-1.464-.065-.497-.085-1.662-.593-1.708.179-.011.212.063.427-.097.607-.284.32-.95.524-1.346.673-.91.345-1.872.535-2.824.721-.887.173-1.78.385-2.672.49-.824.096-1.636.068-2.463.068-1.093 0-2.287.059-3.318-.037-.132-.226-.074-.724-.074-1.06 0-.948-.164-2.215.112-2.85 2.095-.156 4.486-.315 6.371-1.355.356-.196.758-.433 1.039-.727.167-.173.172-.164.204-.402.034-.271.086-.551-.149-.715-.181-.127-.506-.175-.724-.17-.255.006-.206.054-.353.153-.221.15-1.346.837-1.725 1.001a3.178 3.178 0 0 1-.608.178l-.712.161c-.666.15-1.317.176-1.994.176-1.097 0-2.259.243-3.295-.147-.479-.179-1.01-.28-1.145-.849-.098-.413.1-.86.301-1.21.342-.597.634-1.216 1.022-1.784.33-.484.083-.999-.192-1.47-.25-.425-.586-.79-.925-1.149-.465-.492-1.222-1.007-1.94-.633-.485.254-.536.602-.829.953a4.28 4.28 0 0 0-.64 1.077 6.09 6.09 0 0 0-.169.441l-.549 1.533c-.686 1.914-.886 4.479 1.401 5.35.476.18.967.206 1.472.204.434-.003.864.042 1.295-.037.459-.085.855-.362 1.343-.289.155.334.086.736.046 1.086-.081.668-.101 2.144-.867 2.475-.129.056-.276.059-.41.098-.353.11-.543.187-.91.193-.23.005-.465.037-.695.05a27.77 27.77 0 0 1-1.372.043h-3.966c-.597-.054-1.484-.122-2.02.054a.409.409 0 0 0-.058.02c-.158.05-.02.82.032.933a.977.977 0 0 0 .68.577c.468.107.944.02 1.412.065 1.458.144 2.827.308 4.302.333 1.558.026 3.117.046 4.675.046.91 0 1.831 0 2.741-.04.695-.031 3.743-.665 4.644-.888a26.833 26.833 0 0 0 4.996-1.787c.419-.198.838-.41 1.292-.515.548-.127.884.029 1.389.159 1.398.362 2.864.384 4.302.381.683 0 1.366-.025 2.049-.03.388-.004.775-.01 1.165-.012.158 0 1.022-.107 1.108-.006l.092.11-.054.968c0 .47.014.944-.018 1.414-.028.43-.06.72.009 1.148.046.288.158.89-.316.91-.442.017-.935-.404-1.323-.557-.175-.07-.359-.139-.545-.105-.155.029-.287.13-.399.24-.25.244-.425.501-.453.838-.078.947.307 1.612 1.122 2.146.763.5 2.342.8 1.469 2.076-.367.534-.766 1.071-1.125 1.626-.12.186-.247.379-.307.593-.069.25-.155.41-.141.696.018.337.084.78.359 1.032.324.294.735.122 1.128.122.91 0 1.9.26 2.749.577.236.087.471.186.666.342.198.155.454.47.399.73-.046.217-.344.471-.47.647l-.758 1.06c-.244.342-.491.685-.787.982-.266.268-.582.506-.746.842-.419.857-.275 2.03.577 2.58.764.488 1.541 0 2.27-.244.933-.311 1.9-.588 2.842-.89.522-.168 1.047-.334 1.532-.586.91-.475 1.716-1.134 2.618-1.632.84-.46 1.394-1.185 2.077-1.83.19-.177.615-.505.643-.785.041-.357-.335-.213-.628-.15m-25.437-7.412c-.143.043-.284.088-.413.119-.517.121-1.03.246-1.544.373-1.002.246-2.003.5-3.005.752-.439.11-.878.224-1.317.334-1.189.3-2.474.543-3.605 1.032-.479.207-1.375.498-1.88.164-.545-.362.009-1.31.316-1.64.674-.727 1.386-1.44 2.141-2.056.155-.124.318-.288.387-.48.109-.303.017-.277-.149-.492-.227-.294-.353-.642-.631-.914-.488-.483-1.344-1.14-2.032-.639-.29.212-.457.54-.666.829-.218.302-.491.562-.761.82a69.094 69.094 0 0 1-1.989 1.812c-.703.617-1.526 1.103-1.673 2.104-.112.772-.221 1.561-.155 2.341.029.354.078.781.327 1.058.451.498.902.167 1.421-.023.631-.229 1.291-.404 1.94-.588.993-.282 9.451-2.508 9.792-2.596.305-.079.603-.18.902-.28l2.419-.811c.27-.09.855-.167 1.042-.385.175-.203.172-.74.083-.97-.287-.056-.628.037-.947.13M36.262 16.732c.798 0 1.364-3.21 1.355-5.232 0-.418-.009-1.176-.637-.97-1.076.535-1.725 2.797-1.725 4.875 0 .642.6 1.327 1.01 1.327h-.003z" fill="#231916"/>
        <path fill-rule="evenodd" clip-rule="evenodd" d="m37.473 9.756 2.707.124c.55.011 1.067 0 1.547-.034-1.332 1.17 2.221 8.605-5.453 8.574-1.04-.08-1.157.712-1.157.888 0 .777.557 1.326 1.346 1.326h.672c1.082 0 6.555-2.46 7.743-2.98.772-.34 2.896-1.533 3.943-2.54 1.808-1.739 2.282-3.396.526-2.556-2.799 1.94-4.297 3.147-6.404 3.484.38-1.575.68-4.092.552-4.884-.175-.913-.422-1.275-.827-1.402 4.075-.546 4.867-2.602 2.259-2.65-2.3 0-3.424-.455-5.585-.851-2.334-.43-4.492-2.132-5.238-2.132-.52 0-1.01 1.114-1.01 1.657 0 2.46 1.773 3.978 4.374 3.978l.005-.002zM50.595 20.965c-.51.042-.964-.026-1.53.127-.998 0-7.083 2.856-10.584 2.856h-3.028c-1.37 0-1.487-.622-3.272-.823-1.024.026-.637 1.708-.416 2.474.456 1.378.927 1.997 2.342 1.997h2.017c3.436 0 6.223-1.88 8.559-2.93 1.88-.842 5.172-1.156 6.566-1.83 2.578-.655.715-1.871-.654-1.871zM83.367 13.881l-.017-.07-.052-.187-.017-.065-.08-.252-.015-.042-.077-.224-.026-.068a7.746 7.746 0 0 0-.089-.234c-.006-.012-.009-.023-.011-.031-.038-.09-.075-.184-.112-.275-.006-.017-.015-.03-.02-.048a4.16 4.16 0 0 0-.104-.232l-.026-.059a10.52 10.52 0 0 0-.267-.54l-.025-.048-.12-.218-.03-.05a8.514 8.514 0 0 0-.315-.513l-.023-.034a5.321 5.321 0 0 0-.144-.209l-.034-.048a6.238 6.238 0 0 0-.16-.218c-.004-.005-.01-.01-.012-.014a5.02 5.02 0 0 0-.184-.229c-.009-.008-.014-.017-.023-.025a4.912 4.912 0 0 0-.16-.184c-.015-.017-.03-.031-.044-.048-.054-.057-.109-.113-.163-.167l-.032-.031a4.096 4.096 0 0 0-.2-.187c-.01-.005-.018-.014-.024-.02a2.814 2.814 0 0 0-.178-.144l-.054-.042c-.055-.04-.11-.08-.164-.116-.017-.011-.031-.023-.049-.034a3.262 3.262 0 0 0-.212-.13l-.017-.008a3.227 3.227 0 0 0-.198-.1c-.02-.008-.043-.016-.063-.028-.055-.022-.11-.045-.164-.065l-.063-.022a3.318 3.318 0 0 0-.224-.065c.043-1.929 1.682-4.528 1.682-4.974 0-.642-.6-1.327-1.01-1.327-1.94 0-3.27 4.91-3.91 6.759-.648 1.874-2.82 6.337-2.82 8.16 0 .464.459.665 1.01.665H75c2.431 0 3.441-4.632 3.731-7.205l1.309 4.34c.21.996 1.291 1.635 2.132 1.68.06.011.126.014.192.014h.018a.89.89 0 0 0 .192-.022h.017c.009 0 .017-.003.026-.006.014-.003.029-.006.043-.011.023-.006.049-.011.072-.02.011-.003.023-.008.037-.011.035-.012.069-.026.104-.04.008-.006.017-.008.025-.014a.996.996 0 0 0 .115-.062l.066-.043.035-.025c.025-.02.051-.04.074-.06.006-.005.012-.008.017-.014a1.11 1.11 0 0 0 .084-.082l.025-.03c.018-.023.038-.043.052-.066.009-.011.017-.025.026-.037.017-.025.031-.05.049-.076l.017-.031c.02-.037.037-.076.054-.119.003-.008.006-.02.012-.03.011-.035.023-.066.031-.103.003-.014.006-.03.012-.045a.553.553 0 0 0 .017-.099c0-.014.006-.031.006-.045.006-.051.009-.102.009-.153.057-.401-.032-.848-.173-1.303-.017-.077-.037-.156-.057-.238l-.003-.003z" fill="#231916"/>
        <path fill-rule="evenodd" clip-rule="evenodd" d="M89.294 3.724c-1.209 0-1.918 1.445-2.02 2.652-.024 0-.047.006-.076.006h-.028c-.017 0-.035.003-.055.006-.014 0-.031 0-.046.002-.017 0-.031 0-.048.003-.018 0-.038 0-.055.003-.014 0-.031 0-.049.003-.166.014-.37.028-.597.045-.011 0-.025 0-.04.003l-.109.008c-.023 0-.043.003-.066.006-.032 0-.066.006-.1.009-.023 0-.043.002-.066.005-.035 0-.066.006-.1.009-.027 0-.052.005-.078.005l-.095.009c-.029 0-.055.006-.083.008-.032 0-.063.006-.095.009l-.083.008c-.035.003-.07.009-.106.012a2.364 2.364 0 0 1-.141.014l-.11.011c-.03.003-.062.009-.097.011-.028.003-.057.006-.086.012-.034.005-.072.008-.106.014l-.077.008c-.038.006-.072.009-.11.014-.025.003-.051.006-.074.012-.037.005-.075.011-.112.014-.023.003-.049.006-.072.011l-.115.017c-.02.003-.043.006-.063.012-.04.005-.083.014-.123.02a17.397 17.397 0 0 0-.47.085l-.05.008-.114.025c-.02.003-.038.009-.058.011l-.112.026c-.02.006-.037.008-.057.014l-.11.025c-.016.006-.034.009-.054.015-.037.008-.072.02-.106.028a.219.219 0 0 1-.046.011c-.037.011-.075.023-.112.031h-.008c-.262.08-.491.17-.675.269-.407.226-.631.353-.379.78a5.27 5.27 0 0 0 .373.198c.098.046.193.09.29.13.006 0 .009.003.012.006a2.938 2.938 0 0 0 .307.107l.089.026c.077.023.152.042.23.062.031.009.065.014.097.023a6.598 6.598 0 0 0 .319.06 4.857 4.857 0 0 0 .64.05h.063c.086 0 .17 0 .255-.006.035 0 .066-.002.1-.005l.225-.017.106-.012c.077-.008.152-.02.23-.03.03-.006.062-.01.094-.015.1-.017.2-.037.304-.056.006 0 .012 0 .017-.003.11-.023.219-.048.328-.077.028-.008.057-.016.088-.022.08-.02.158-.043.239-.065l.115-.034.218-.068c.04-.011.077-.025.117-.037.075-.025.153-.05.23-.079.034-.011.066-.023.1-.037.11-.04.221-.079.33-.121l-.24 4.657c0 .543.2.995.674.995 1.745-.234 2.147-6.693 2.35-8.862 0-.294-.24-1.12-.668-1.083v.006zM94.684 12.04c.419-2.915 1.153-5.946 1.153-8.83 0-1.245-1.085-2.008-1.83-1.08-1.137 1.082-2.047 2.652-2.024 6.896.011 2.084.109 4.711-.359 6.905-1.16 4.166 1.303 1.338 2.382-1.057.408-.9.614-2.393.678-2.834zM101.953 10.895c.322 1.185 1.507 2.84 2.977 3.238 1.793.291 3.177-.093 3.544-1.456-.425-.023-.832.192-1.277-.068-1.607-.973-1.26-3.597-3.932-3.871.608-2.789 4.093-2.438 4.093-4.72 0-.684-1.235-1.87-3-1.14-1.558.244-8.145 10.076-8.145 13.096.638 1.764 3.51-4.434 5.74-5.082v.003zM111.548 18.462c-4.518.512-7.339 1.884-12.026 1.267-2.224-.34-2.35-.325-4.178-1.422-1.708-.758-1.676.85-1.676 1.993 0 2.435 2.603 2.984 5.048 2.984 3.094.025 5.677-.736 8.472-1.598 2.566-.987 5.955-.747 7.054-.964 2.101-.286-1.225-2.463-2.694-2.263v.003zM76.109 19.718l-.586.523c-3.042 2.008-12.154 4.315-12.24 3.07-.267-1.447.175-3.005-.758-4.034 2.247-1.539 6.027-2.401 9.316-3.555.454-.237 1.028-.376.962-.727-.293-.325-.815-.107-1.375-.042-5.301 1.137-8.297 2.081-13.133 3.984-1.593.342-1.98.082-1.447-.588 1.705-2.143 7.657-3.795 7.657-7.055 0-1.06-2.327-1.691-3.478-1.787.835-1.123 3.025-1.188 3.025-2.469 0-2.149-5.645-4.643-8.076-4.643h-1.01c.625 2.644 2.548 3.577 5.72 3.648-.38 1.402-1.367 1.84-2.79 2.169-1.39.466.089 3.418 1.134 3.557.883.158 1.75-.294 2.654-.144-.037 1.354-7.08 5.842-7.393 7.018-.447 1.287.54 2.302 1.501 2.302.996-.025 1.461-.05 2.161-.218 1.694-.376 2.121-.862 3.404-.964.566.41.307 1.92.339 2.859-.112.834-.25 1.196-1.191 1.34-1.567.382-3.26.495-4.876.64-2.715.24-4.498-.026-3.2 1.721.588.611 1.636.444 2.542.444 7.629 0 19.878-2.36 21.985-6.303.358-1.066.048-1.295-.85-.743l.003-.003z" fill="#231916"/>
    </g>
    <defs>
        <linearGradient id="ssjjf33u4b" x1="-3.472" y1="14.06" x2="21.307" y2="14.06" gradientUnits="userSpaceOnUse">
            <stop stop-color="#DF0716"/>
            <stop offset=".15" stop-color="#E11913"/>
            <stop offset=".46" stop-color="#E84A0C"/>
            <stop offset=".89" stop-color="#F39802"/>
            <stop offset=".98" stop-color="#F6AB00"/>
        </linearGradient>
        <clipPath id="w2ovu4i42a">
            <path fill="#fff" d="M0 0h166v36H0z"/>
        </clipPath>
    </defs>
</svg>
